<svg width="19" height="30" fill="none" xmlns="http://www.w3.org/2000/svg"><g clip-path="url(#a)"><path d="m5.858 15.086 3.208-2.806 9.088-7.97c1.192-1.038 1.053-2.55-.262-3.304a2.62 2.62 0 0 0-2.673.101 4.32 4.32 0 0 0-.487.39L1.212 13.344c-1.288 1.128-1.282 2.24 0 3.378 4.527 3.963 9.048 7.924 13.563 11.884a2.636 2.636 0 0 0 2.582.668c1.556-.422 2.139-2.069 1.134-3.207a5.027 5.027 0 0 0-.535-.487L6.409 15.482c-.155-.134-.337-.24-.55-.396Z" fill="#0380D4"/></g><defs><clipPath id="a"><path fill="#fff" transform="translate(.25 .69)" d="M0 0h18.732v28.686H0z"/></clipPath></defs></svg>