<svg width="11" height="16" fill="none" xmlns="http://www.w3.org/2000/svg"><g clip-path="url(#a)"><path d="M7.34 8.326 5.633 6.84C4.03 5.44 2.427 4.039.823 2.633A1.021 1.021 0 0 1 .967.885a1.39 1.39 0 0 1 1.411.053c.09.064.176.133.257.209l7.142 6.26c.679.593.679 1.181 0 1.785-2.384 2.09-4.78 4.18-7.158 6.276a1.385 1.385 0 0 1-1.363.353 1.021 1.021 0 0 1-.604-1.684 2.59 2.59 0 0 1 .272-.262L7.03 8.529c.086-.064.182-.123.31-.203Z" fill="#C16AE5"/></g><defs><clipPath id="a"><path fill="#fff" transform="translate(.39 .719)" d="M0 0h9.895v15.161H0z"/></clipPath></defs></svg>