<svg width="19" height="30" fill="none" xmlns="http://www.w3.org/2000/svg"><g clip-path="url(#a)"><path d="m13.163 14.98-3.208 2.806-9.087 7.97c-1.193 1.038-1.054 2.55.262 3.304a2.619 2.619 0 0 0 2.672-.101c.172-.118.334-.249.487-.39l13.52-11.847c1.288-1.128 1.282-2.24 0-3.378A24437.76 24437.76 0 0 1 4.245 1.46 2.636 2.636 0 0 0 1.664.792C.108 1.214-.474 2.86.531 3.999c.166.175.345.338.534.487l11.547 10.098c.155.134.337.24.55.396Z" fill="#0380D4"/></g><defs><clipPath id="a"><path fill="#fff" transform="rotate(-180 9.385 14.688)" d="M0 0h18.732v28.686H0z"/></clipPath></defs></svg>