<?xml version="1.0" encoding="utf-8"?>
<!-- Generator: Adobe Illustrator 25.4.1, SVG Export Plug-In . SVG Version: 6.00 Build 0)  -->
<svg version="1.1" id="Capa_1" xmlns="http://www.w3.org/2000/svg" xmlns:xlink="http://www.w3.org/1999/xlink" x="0px" y="0px"
	 viewBox="0 0 1800 1800" style="enable-background:new 0 0 1800 1800;" xml:space="preserve">
<style type="text/css">
	.st0{fill:none;}
	.st1{fill:url(#SVGID_1_);}
	.st2{fill:url(#SVGID_00000062907431380316266960000014339387956649723577_);}
</style>
<rect y="4.94" class="st0" width="1800" height="1800"/>
<g>
	<g>
		<g>
			<linearGradient id="SVGID_1_" gradientUnits="userSpaceOnUse" x1="378.6915" y1="1010.4067" x2="1428.6116" y2="549.4011">
				<stop  offset="0.1529" style="stop-color:#63067D"/>
				<stop  offset="0.6119" style="stop-color:#0052A0"/>
				<stop  offset="0.9743" style="stop-color:#0385DB"/>
			</linearGradient>
			<path class="st1" d="M1091.94,930.34c-0.09,21.62-10.91,41.66-28.93,53.59l-413.66,273.94c-10.79,7.15-23.2,10.75-35.66,10.75
				c-10.47,0-20.98-2.55-30.57-7.7c-20.99-11.28-34.02-33.09-34.02-56.91V779.76c0-23.94,13.12-45.78,34.25-57.02
				c21.14-11.25,46.59-9.92,66.44,3.46l270.3,182.21c5.48,3.7,8.77,9.89,8.74,16.5c-0.02,6.62-3.33,12.78-8.84,16.45l-187.05,124.45
				c-6.08,4.05-13.9,4.42-20.35,0.97c-6.44-3.45-10.46-10.17-10.46-17.48v-74.2c-5.97-3.2-11.24-7.9-15.2-13.97
				c-12.64-19.35-7.2-45.28,12.15-57.92c19.35-12.64,45.28-7.2,57.92,12.15c12.64,19.35,7.2,45.28-12.15,57.92
				c-1,0.66-2.02,1.26-3.05,1.82v37.2l131.59-87.55L627.62,759.08c-7.78-5.24-17.36-5.74-25.65-1.34
				c-8.28,4.41-13.23,12.64-13.23,22.02v424.26c0,9.35,4.91,17.56,13.14,21.97c8.22,4.42,17.78,3.98,25.57-1.18l413.66-273.95
				c7.06-4.67,11.14-12.22,11.17-20.69c0.03-8.47-3.97-16.05-11-20.78l-418.6-282.2c-18.93,10.17-42.82,4.32-54.8-14
				c-12.64-19.35-7.21-45.28,12.14-57.92c19.35-12.64,45.28-7.21,57.93,12.15c5.37,8.23,7.48,17.64,6.63,26.72l418.86,282.36
				C1081.37,888.6,1092.02,908.72,1091.94,930.34z"/>
		</g>
		<g>
			
				<linearGradient id="SVGID_00000077284839770623216200000016394562180768811966_" gradientUnits="userSpaceOnUse" x1="448.6514" y1="1086.6587" x2="1498.5714" y2="625.6532">
				<stop  offset="0.1529" style="stop-color:#63067D"/>
				<stop  offset="0.6119" style="stop-color:#0052A0"/>
				<stop  offset="0.9743" style="stop-color:#0385DB"/>
			</linearGradient>
			<path style="fill:url(#SVGID_00000077284839770623216200000016394562180768811966_);" d="M858.99,587.83
				c-0.86,2.74-2.94,12.19,6.4,18.69l316,219.72c34.63,24.07,54.96,63.63,54.4,105.81c-0.56,42.17-21.96,81.16-57.22,104.3
				L867.64,1240.4c1.16,14.75-5.57,29.67-18.84,38.34c-19.35,12.64-45.28,7.2-57.92-12.15c-12.64-19.35-7.2-45.28,12.15-57.92
				c13.41-8.76,29.99-8.83,43.1-1.6l310.67-203.87c24.59-16.14,38.93-42.27,39.32-71.69c0.4-29.42-13.23-55.92-37.38-72.71
				l-316-219.72c-20.64-14.35-29.12-39.12-21.6-63.11s28.63-39.49,53.76-39.49h297.29c3.2-5.97,7.9-11.24,13.97-15.2
				c19.35-12.65,45.28-7.21,57.92,12.14c12.65,19.35,7.21,45.28-12.14,57.92c-19.35,12.65-45.28,7.21-57.92-12.14
				c-0.66-1.01-1.26-2.02-1.82-3.06h-297.3C863.54,576.13,859.85,585.08,858.99,587.83z"/>
		</g>
	</g>
</g>
</svg>
