<svg width="29" height="23" viewBox="0 0 29 23" fill="#FFF" xmlns="http://www.w3.org/2000/svg">
<g id="Capa_1" clip-path="url(#clip0_30_984)">
<path id="Vector" d="M27.2416 3.48485H1.75843C1.29206 3.48485 0.844801 3.30127 0.515032 2.9745C0.185262 2.64774 0 2.20454 0 1.74242C0 1.2803 0.185262 0.837112 0.515032 0.510344C0.844801 0.183576 1.29206 0 1.75843 0L27.2416 0C27.7079 0 28.1552 0.183576 28.485 0.510344C28.8147 0.837112 29 1.2803 29 1.74242C29 2.20454 28.8147 2.64774 28.485 2.9745C28.1552 3.30127 27.7079 3.48485 27.2416 3.48485Z" fill="url(#paint0_linear_30_984)"/>
<path id="Vector_2" d="M27.2416 13.2424H1.75843C1.29206 13.2424 0.844801 13.0588 0.515032 12.7321C0.185262 12.4053 0 11.9621 0 11.5C0 11.0379 0.185262 10.5947 0.515032 10.2679C0.844801 9.94115 1.29206 9.75758 1.75843 9.75758H27.2416C27.7079 9.75758 28.1552 9.94115 28.485 10.2679C28.8147 10.5947 29 11.0379 29 11.5C29 11.9621 28.8147 12.4053 28.485 12.7321C28.1552 13.0588 27.7079 13.2424 27.2416 13.2424Z" fill="url(#paint1_linear_30_984)"/>
<path id="Vector_3" d="M27.2416 23H1.75843C1.29206 23 0.844801 22.8164 0.515032 22.4897C0.185262 22.1629 0 21.7197 0 21.2576C0 20.7955 0.185262 20.3523 0.515032 20.0255C0.844801 19.6987 1.29206 19.5152 1.75843 19.5152H27.2416C27.7079 19.5152 28.1552 19.6987 28.485 20.0255C28.8147 20.3523 29 20.7955 29 21.2576C29 21.7197 28.8147 22.1629 28.485 22.4897C28.1552 22.8164 27.7079 23 27.2416 23Z" fill="url(#paint2_linear_30_984)"/>
</g>
<defs>
<linearGradient id="paint0_linear_30_984" x1="-9.00315" y1="2.15015" x2="32.7593" y2="1.41193" gradientUnits="userSpaceOnUse">
<stop offset="0.2" stop-color="#63067D"/>
<stop offset="0.93" stop-color="#0380D4"/>
</linearGradient>
<linearGradient id="paint1_linear_30_984" x1="-8.83083" y1="11.9042" x2="32.9316" y2="11.166" gradientUnits="userSpaceOnUse">
<stop offset="0.2" stop-color="#63067D"/>
<stop offset="0.93" stop-color="#0380D4"/>
</linearGradient>
<linearGradient id="paint2_linear_30_984" x1="-8.6585" y1="21.6618" x2="33.1039" y2="20.92" gradientUnits="userSpaceOnUse">
<stop offset="0.2" stop-color="#63067D"/>
<stop offset="0.93" stop-color="#0380D4"/>
</linearGradient>
<clipPath id="clip0_30_984">
<rect width="29" height="23" fill="white"/>
</clipPath>
</defs>
</svg>
